<?xml version="1.0" standalone="no"?>
<!DOCTYPE svg PUBLIC "-//W3C//DTD SVG 20010904//EN"
 "http://www.w3.org/TR/2001/REC-SVG-20010904/DTD/svg10.dtd">
<svg version="1.0" xmlns="http://www.w3.org/2000/svg"
 width="700.000000pt" height="700.000000pt" viewBox="0 0 700.000000 700.000000"
 preserveAspectRatio="xMidYMid meet">
<metadata>
Created by potrace 1.14, written by Peter Selinger 2001-2017
</metadata>
<g transform="translate(0.000000,700.000000) scale(0.100000,-0.100000)"
fill="#000000" stroke="none">
<path d="M3368 5865 c-2 -1 -46 -5 -98 -9 -239 -17 -543 -103 -795 -226 -615
-301 -1051 -821 -1249 -1490 -19 -65 -56 -238 -62 -295 -3 -22 -7 -51 -9 -65
-3 -14 -8 -65 -11 -115 -18 -257 3 -497 66 -738 130 -504 389 -910 797 -1249
316 -263 784 -472 1153 -513 30 -3 75 -9 100 -12 65 -7 371 -6 465 1 338 29
653 130 960 310 33 20 67 39 75 43 8 4 44 27 80 52 255 175 381 328 491 596
12 29 28 129 34 210 3 39 7 367 9 730 4 590 1 754 -15 770 -14 13 -112 18
-412 19 l-328 1 -5 -22 c-8 -30 -11 -370 -4 -377 3 -3 82 -7 174 -9 162 -3
170 -4 187 -26 21 -26 21 -16 21 -436 1 -473 -8 -617 -40 -690 -5 -11 -19 -42
-31 -70 -101 -225 -266 -364 -633 -534 -157 -73 -301 -120 -418 -136 -25 -3
-52 -8 -60 -10 -51 -14 -371 -20 -518 -10 -74 5 -87 7 -197 26 -144 26 -407
129 -572 226 -74 44 -154 94 -163 103 -3 3 -31 25 -62 48 -31 24 -62 50 -69
59 -11 13 -8 15 21 13 19 -1 90 -2 158 -1 l122 1 0 570 0 570 23 1 c136 5 268
13 402 25 191 17 365 124 443 273 30 57 66 159 78 221 14 74 13 642 -1 726
-16 97 -52 206 -90 270 -62 106 -218 220 -330 240 -22 3 -49 8 -60 10 -11 2
-147 6 -303 10 -155 3 -321 7 -370 9 -48 2 -93 4 -101 4 -36 2 122 123 279
216 220 129 499 225 725 251 33 3 69 8 80 10 28 6 353 6 395 0 19 -3 58 -8 85
-11 270 -31 552 -136 800 -300 71 -47 124 -74 146 -75 23 0 127 92 202 180 43
51 48 88 15 123 -85 89 -377 257 -601 346 -147 58 -343 112 -462 126 -27 3
-59 8 -70 10 -55 11 -437 28 -447 20z m-1175 -2363 c2 -1279 0 -1449 -13
-1439 -28 22 -115 113 -161 167 -141 169 -267 387 -354 610 -31 81 -79 244
-89 303 -19 112 -26 450 -13 592 12 134 49 286 104 435 59 158 157 344 251
475 83 116 260 321 269 312 2 -3 5 -657 6 -1455z m737 1153 c53 -9 117 -43
145 -77 15 -17 41 -61 59 -97 l32 -66 -1 -290 c-3 -456 -13 -502 -124 -579
-62 -43 -128 -56 -316 -62 -93 -3 -176 -7 -182 -9 -10 -4 -13 119 -13 589 0
326 2 595 5 598 8 7 351 1 395 -7z"/>
<path d="M4005 4913 c-130 -27 -247 -95 -321 -187 -98 -121 -148 -283 -153
-501 -5 -231 42 -380 169 -540 51 -64 260 -270 375 -370 350 -304 431 -433
427 -678 -2 -139 -25 -215 -87 -292 -113 -139 -370 -147 -489 -14 -75 84 -107
195 -109 386 -1 65 -6 114 -12 116 -5 2 -75 3 -155 3 l-145 -1 1 -25 c10 -374
65 -567 201 -703 113 -115 240 -159 458 -160 160 -1 242 15 345 65 149 73 278
266 306 460 10 69 11 297 1 368 -19 145 -120 330 -254 466 -66 68 -103 101
-253 234 -292 258 -364 333 -405 423 -79 171 -69 426 21 548 91 124 281 160
427 81 94 -51 144 -147 163 -316 3 -33 8 -67 9 -75 2 -9 4 -30 4 -48 l1 -31
155 0 154 -1 -4 47 c-2 26 -7 77 -9 115 -3 37 -8 79 -11 95 -40 191 -95 303
-193 394 -79 73 -158 113 -287 145 -51 13 -264 10 -330 -4z"/>
</g>
</svg>
